<svg width="20" height="20" viewBox="0 0 20 20" fill="none" xmlns="http://www.w3.org/2000/svg">
<path d="M7.94136 1.9429C8.71405 0.62493 10.6194 0.624932 11.3921 1.9429L13.1179 4.88664C13.3999 5.36761 13.8698 5.70904 14.4144 5.8286L17.7474 6.5603C19.2396 6.8879 19.8284 8.69996 18.8137 9.8421L16.5473 12.3931C16.177 12.8099 15.9975 13.3624 16.0521 13.9173L16.3862 17.3132C16.5357 18.8337 14.9943 19.9536 13.5945 19.3415L10.468 17.9744C9.95715 17.751 9.37626 17.751 8.86543 17.9744L5.73891 19.3415C4.33911 19.9536 2.79768 18.8336 2.94724 17.3132L3.2813 13.9173C3.33588 13.3624 3.15637 12.8099 2.78608 12.3931L0.519728 9.8421C-0.494958 8.69996 0.0938176 6.8879 1.58605 6.5603L4.91903 5.8286C5.4636 5.70904 5.93354 5.36761 6.21552 4.88664L7.94136 1.9429Z" fill="#666666"/>
</svg>
