<svg width="20" height="20" viewBox="0 0 20 20" fill="none" xmlns="http://www.w3.org/2000/svg">
<path d="M8.354 1.9429C9.12669 0.62493 11.032 0.624932 11.8047 1.9429L13.5305 4.88664C13.8125 5.36761 14.2825 5.70904 14.827 5.8286L18.16 6.5603C19.6522 6.8879 20.241 8.69996 19.2263 9.8421L16.96 12.3931C16.5897 12.8099 16.4102 13.3624 16.4648 13.9173L16.7988 17.3132C16.9484 18.8337 15.4069 19.9536 14.0071 19.3415L10.8806 17.9744C10.3698 17.751 9.7889 17.751 9.27807 17.9744L6.15155 19.3415C4.75175 19.9536 3.21032 18.8336 3.35988 17.3132L3.69394 13.9173C3.74852 13.3624 3.56901 12.8099 3.19872 12.3931L0.932367 9.8421C-0.0823185 8.69996 0.506457 6.8879 1.99869 6.5603L5.33167 5.8286C5.87624 5.70904 6.34618 5.36761 6.62816 4.88664L8.354 1.9429Z" fill="#FFCE22"/>
</svg>
